<svg xmlns="http://www.w3.org/2000/svg" baseProfile="full" version="1.1" style="fill: none;" width="1860px" height="840px"><path style="stroke-width: 15px; stroke-linecap: round; stroke-linejoin: round; stroke: rgb(106, 106, 106); fill: none;" d=""/><path style="stroke-width: 15px; stroke-linecap: round; stroke-linejoin: round; stroke: rgb(74, 74, 74); fill: none;" d=""/><path style="stroke-width: 31px; stroke-linecap: round; stroke-linejoin: round; stroke: rgb(10, 10, 10); fill: none;" d="M300,600 Q675,45 795,75 Q870,195 840,240 M1200,330 Q1320,525 1425,645 Q1425,645 1470,615 M705,690 Q780,390 660,300 Q420,105 390,90 M45,375 Q285,300 1485,105 Q1740,60 1770,120 M1785,225 Q1800,330 1785,330 M1785,645 A60,15 0 0,0 1725,660 A45,45 0 0,0 1680,615 A15,60 0 0,0 1695,675 L1695,720 L1695,765 A30,30 0 0,0 1725,735 A15,15 0 0,0 1740,750 A30,30 0 0,0 1770,780 A15,60 0 0,0 1755,720 A15,30 0 0,0 1740,690 L1770,690 A45,15 0 0,0 1815,705 A30,45 0 0,0 1785,660 L1770,660 A15,15 0 0,0 1785,645 L1785,645 L1785,645 A15,15 0 0,0 1770,630 A15,15 0 0,0 1755,615 L1755,615 A15,45 0 0,0 1740,660 A15,30 0 0,0 1725,630 A30,60 0 0,0 1695,570 A90,15 0 0,0 1785,555 A60,60 0 0,0 1845,495 A15,90 0 0,0 1830,405 L1755,405 A120,90 0 0,0 1635,315 L1635,300 A45,105 0 0,0 1680,405 A30,105 0 0,0 1710,510 A45,120 0 0,0 1665,630 A45,30 0 0,0 1620,660 L1620,675 A60,30 0 0,0 1680,645 L1680,645 L1710,645 M1560,240 Q1185,795 1065,765 Q990,645 1020,600 M660,510 Q540,315 435,195 Q435,195 390,225 M1155,150 Q1080,450 1200,540 Q1440,735 1470,750 M1815,465 Q1575,540 375,735 Q120,780 90,720 M75,615 Q60,510 75,510 M75,195 A60,15 0 0,0 135,180 A45,45 0 0,0 180,225 A15,60 0 0,0 165,165 L165,120 L165,75 A30,30 0 0,0 135,105 A15,15 0 0,0 120,90 A30,30 0 0,0 90,60 A15,60 0 0,0 105,120 A15,30 0 0,0 120,150 L90,150 A45,15 0 0,0 45,135 A30,45 0 0,0 75,180 L90,180 A15,15 0 0,0 75,195 L75,195 L75,195 A15,15 0 0,0 90,210 A15,15 0 0,0 105,225 L105,225 A15,45 0 0,0 120,180 A15,30 0 0,0 135,210 A30,60 0 0,0 165,270 A90,15 0 0,0 75,285 A60,60 0 0,0 15,345 A15,90 0 0,0 30,435 L105,435 A120,90 0 0,0 225,525 L225,540 A45,105 0 0,0 180,435 A30,105 0 0,0 150,330 A45,120 0 0,0 195,210 A45,30 0 0,0 240,180 L240,165 A60,30 0 0,0 180,195 L180,195 L150,195 "/></svg>