<svg xmlns="http://www.w3.org/2000/svg" baseProfile="full" version="1.1" style="fill: none;" width="1860px" height="840px"><path style="stroke-width: 15px; stroke-linecap: round; stroke-linejoin: round; stroke: rgb(106, 106, 106); fill: none;" d=""/><path style="stroke-width: 15px; stroke-linecap: round; stroke-linejoin: round; stroke: rgb(74, 74, 74); fill: none;" d=""/><path style="stroke-width: 31px; stroke-linecap: round; stroke-linejoin: round; stroke: rgb(10, 10, 10); fill: none;" d="M105,165 Q315,240 360,480 Q255,645 225,420 M540,615 Q915,390 1170,315 M1620,585 Q1710,630 1410,765 M870,690 Q960,585 1215,435 M1515,165 Q1395,120 1350,165 Q1365,240 1395,255 Q1485,225 1485,210 M1815,90 Q1800,150 1770,285 M1365,480 Q1170,240 990,105 Q780,90 570,210 Q495,390 840,135 M465,75 Q390,60 315,45 Q330,105 360,120 Q360,165 390,225 Q420,255 420,255 "/></svg>