<svg xmlns="http://www.w3.org/2000/svg" baseProfile="full" version="1.1" style="fill: none;" width="1860px" height="840px"><path style="stroke-width: 15px; stroke-linecap: round; stroke-linejoin: round; stroke: rgb(106, 106, 106); fill: none;" d=""/><path style="stroke-width: 15px; stroke-linecap: round; stroke-linejoin: round; stroke: rgb(74, 74, 74); fill: none;" d=""/><path style="stroke-width: 41px; stroke-linecap: round; stroke-linejoin: round; stroke: rgb(10, 10, 10); fill: none;" d="M120,120 L120,120 L120,720 M240,180 L240,180 L480,420 L240,660 M600,420 A60,60 0 0,1 660,360 L660,360 A60,60 0 0,1 720,420 A60,60 0 0,0 780,480 L780,480 A60,60 0 0,0 840,420 A60,60 0 0,1 900,360 L900,360 A60,60 0 0,1 960,420 A60,60 0 0,0 1020,480 L1020,480 A60,60 0 0,0 1080,420 "/></svg>