<svg xmlns="http://www.w3.org/2000/svg" baseProfile="full" version="1.1" style="fill: none;" width="1860px" height="840px"><path style="stroke-width: 15px; stroke-linecap: round; stroke-linejoin: round; stroke: rgb(106, 106, 106); fill: none;" d=""/><path style="stroke-width: 15px; stroke-linecap: round; stroke-linejoin: round; stroke: rgb(74, 74, 74); fill: none;" d=""/><path style="stroke-width: 41px; stroke-linecap: round; stroke-linejoin: round; stroke: rgb(10, 10, 10); fill: none;" d="M120,120 L120,120 L120,720 M210,135 L210,135 L420,420 L210,705 M480,420 A60,60 0 0,1 540,360 A60,60 0 0,1 600,420 A60,60 0 0,1 660,480 A60,60 0 0,1 720,420 A60,60 0 0,1 780,360 A60,60 0 0,1 840,420 A60,60 0 0,1 900,480 A60,60 0 0,1 960,420 A60,60 0 0,1 1020,360 A75,60 0 0,1 1095,420 A30,60 0 0,1 1125,480 "/></svg>